<svg aria-hidden="true" style="position:absolute;width:0;height:0" xmlns="http://www.w3.org/2000/svg" overflow="hidden"><defs><symbol id="ALARM" viewBox="0 0 32 32"><path fill="var(--color1, #95e1d3)" d="M30.74 10c-1.623-3.715-4.528-6.62-8.142-8.204l-.101-.039a5.87 5.87 0 018.234 8.255L30.74 10zm-.24 6.5v.006c0 3.852-1.509 7.352-3.969 9.941l.006-.006 2.029 2.028a1.485 1.485 0 01-2.1 2.1l-2.178-2.178a14.336 14.336 0 01-8.29 2.613c-3.098 0-5.968-.974-8.322-2.634l.046.031-2.163 2.163a1.5 1.5 0 11-2.122-2.121l2.012-2.012A14.44 14.44 0 011.512 16.5c0-8.005 6.489-14.494 14.494-14.494S30.5 8.495 30.5 16.5v.001zM16 5C9.649 5 4.5 10.149 4.5 16.5S9.649 28 16 28s11.5-5.149 11.5-11.5S22.351 5 16 5zm6 13h-6a1.5 1.5 0 01-1.5-1.5v-8a1.5 1.5 0 013 0V15H22a1.5 1.5 0 010 3zM1.287 10.2a5.995 5.995 0 018.432-8.409l-.012-.009c-3.795 1.659-6.762 4.627-8.379 8.32l-.04.103z"/></symbol><symbol id="BOOK" viewBox="0 0 32 32"><path fill="var(--color1, #95e1d3)" d="M31.065 25.889l-14.471 5.988a1.501 1.501 0 01-1.198-.003l.01.004L.935 25.89A1.502 1.502 0 010 24.501v-23A1.5 1.5 0 012.083.118l-.01-.004h.013L16 5.876 29.924.12A1.5 1.5 0 0132 1.5v23c0 .625-.382 1.16-.925 1.385l-.01.004zM14.5 8.5L3 3.744V23.5l11.5 4.759V8.5zM29 3.742L17.5 8.5v19.754L29 23.5V3.744zm-9.121 6.89l5.5-2.5a1.5 1.5 0 011.251 2.727l-.009.004-5.5 2.5a1.5 1.5 0 01-1.251-2.725l.009-.004zm0 5.5l5.5-2.5a1.5 1.5 0 011.251 2.727l-.009.004-5.5 2.5a1.5 1.5 0 01-1.251-2.725l.009-.004zm0 5.5l5.5-2.5a1.5 1.5 0 011.251 2.727l-.009.004-5.5 2.5a1.5 1.5 0 01-1.251-2.725l.009-.004zM6 8h.001c.225 0 .438.049.629.138l-.009-.004 5.5 2.5a1.5 1.5 0 01-.62 2.866h-.004a1.48 1.48 0 01-.627-.139l.009.004-5.5-2.5A1.5 1.5 0 016 8zm0 5.5h.001c.225 0 .438.049.629.138l-.009-.004 5.5 2.5a1.5 1.5 0 11-1.251 2.728l.009.004-5.5-2.5A1.5 1.5 0 016 13.501zM6 19h.001c.225 0 .438.049.629.138l-.009-.004 5.5 2.5a1.5 1.5 0 01-.62 2.866h-.004a1.48 1.48 0 01-.627-.139l.009.004-5.5-2.5A1.5 1.5 0 016 19z"/></symbol><symbol id="COMPUTER" viewBox="0 0 32 32"><path fill="var(--color1, #95e1d3)" d="M30.452 25.29h-9.806v2.581l2.065 2.065v.516H9.292v-.516l2.065-2.065V25.29H1.551a1.548 1.548 0 01-1.548-1.548V3.097c0-.855.693-1.548 1.548-1.548h28.903c.855 0 1.548.693 1.548 1.548v20.645c0 .855-.693 1.548-1.548 1.548zm-.517-21.677H2.064v17.548h27.871V3.613zm-17.032 7.226c.427 0 .814.173 1.094.453l.97.969 3.035-3.034a1.548 1.548 0 112.189 2.188l-.001.001-4.129 4.129c-.28.28-.667.453-1.094.453s-.814-.173-1.094-.453l-2.065-2.065a1.547 1.547 0 011.094-2.642z"/></symbol><symbol id="HOME" viewBox="0 0 32 32"><path fill="var(--color1, #95e1d3)" d="M32 16.5a1.5 1.5 0 01-2.521 1.093l.001.001L16 4.122 2.554 17.568A1.5 1.5 0 11.461 15.42l.001-.001L14.92.96C15.193.676 15.576.5 16 .5h.091l.068.006c.371.042.695.213.932.467l.001.001 5.9 5.9V5.5a1.5 1.5 0 013 0v4.378l5.6 5.6c.252.266.407.626.408 1.022zM29 19v10.5a1.5 1.5 0 01-1.5 1.5h-3V19h-6v12h-14A1.5 1.5 0 013 29.5V19L16 6zm-15.5 0h-6v6h6v-6z"/></symbol><symbol id="IMAGE" viewBox="0 0 32 32"><path fill="var(--color1, #95e1d3)" d="M30.5 32h-29A1.5 1.5 0 010 30.5v-29A1.5 1.5 0 011.5 0h29A1.5 1.5 0 0132 1.5v29a1.5 1.5 0 01-1.5 1.5zM29 3H3v26h26V3zM6.5 4.5H12a1.5 1.5 0 010 3H7.5V12a1.5 1.5 0 01-3 0V4.5h2zM4.5 20a1.5 1.5 0 013 0v4.5H12a1.5 1.5 0 010 3H4.5V20zM20 4.5h7.5V12a1.5 1.5 0 01-3 0V7.5H20a1.5 1.5 0 010-3zm0 20h4.5V20a1.5 1.5 0 013 0v7.5H20a1.5 1.5 0 010-3z"/></symbol><symbol id="LINE_GRAPH" viewBox="0 0 32 32"><path fill="var(--color1, #95e1d3)" d="M30.5 32h-29A1.5 1.5 0 010 30.5v-29A1.5 1.5 0 011.5 0h29A1.5 1.5 0 0132 1.5v29a1.5 1.5 0 01-1.5 1.5zM29 3H3v26h26V3zM5.215 16.238l4-2.5a1.497 1.497 0 011.63.038l-.005-.003.006-.008 6.631 4.42 7.638-5.392a1.5 1.5 0 111.768 2.423l-.005.003-8.5 6a1.497 1.497 0 01-1.744.009l.005.003-6.657-4.438-3.135 1.96a1.5 1.5 0 11-1.639-2.512l.007-.004z"/></symbol></defs></svg>