<svg aria-hidden="true" style="position: absolute; width: 0; height: 0; overflow: hidden;" version="1.1" xmlns="http://www.w3.org/2000/svg" xmlns:xlink="http://www.w3.org/1999/xlink">
<defs>
<symbol id="ALARM" viewBox="0 0 32 32">
<path fill="#95e1d3" style="fill: var(--color1, #95e1d3)" d="M30.74 10c-1.623-3.715-4.528-6.62-8.142-8.204l-0.101-0.039c0.99-0.787 2.257-1.262 3.636-1.262 3.241 0 5.869 2.628 5.869 5.869 0 1.379-0.475 2.646-1.271 3.648l0.009-0.012zM30.5 16.5c0 0.002 0 0.004 0 0.006 0 3.852-1.509 7.352-3.969 9.941l0.006-0.006 2.029 2.028c0.269 0.269 0.435 0.64 0.435 1.050 0 0.82-0.665 1.485-1.485 1.485-0.41 0-0.781-0.166-1.050-0.435l-2.178-2.178c-2.31 1.635-5.186 2.613-8.29 2.613-3.098 0-5.968-0.974-8.322-2.634l0.046 0.031-2.163 2.163c-0.271 0.272-0.647 0.44-1.061 0.44-0.829 0-1.5-0.672-1.5-1.5 0-0.414 0.168-0.789 0.439-1.061l2.012-2.012c-2.438-2.588-3.937-6.084-3.937-9.931 0-8.005 6.489-14.494 14.494-14.494s14.494 6.489 14.494 14.494c0 0 0 0.001 0 0.001v-0zM16 5c-6.351 0-11.5 5.149-11.5 11.5s5.149 11.5 11.5 11.5c6.351 0 11.5-5.149 11.5-11.5v0c0-6.351-5.149-11.5-11.5-11.5v0zM22 18h-6c-0.828 0-1.5-0.672-1.5-1.5v0-8c0-0.828 0.672-1.5 1.5-1.5s1.5 0.672 1.5 1.5v0 6.5h4.5c0.828 0 1.5 0.672 1.5 1.5s-0.672 1.5-1.5 1.5v0zM1.287 10.2c-0.803-1.011-1.288-2.305-1.288-3.713 0-3.31 2.684-5.994 5.994-5.994 1.408 0 2.703 0.485 3.726 1.298l-0.012-0.009c-3.795 1.659-6.762 4.627-8.379 8.32l-0.040 0.103z"></path>
</symbol>
<symbol id="BOOK" viewBox="0 0 32 32">
<path fill="#95e1d3" style="fill: var(--color1, #95e1d3)" d="M31.065 25.889l-14.471 5.988c-0.175 0.078-0.379 0.123-0.594 0.123s-0.419-0.045-0.604-0.126l0.010 0.004-14.471-5.988c-0.553-0.229-0.935-0.764-0.935-1.389v-23c0-0.828 0.672-1.5 1.5-1.5 0.207 0 0.404 0.042 0.583 0.117l-0.010-0.004h0.013l13.914 5.762 13.924-5.756c0.17-0.073 0.368-0.115 0.576-0.115 0.827 0 1.497 0.669 1.5 1.495v23c-0 0.625-0.382 1.16-0.925 1.385l-0.010 0.004zM14.5 8.5l-11.5-4.756v19.756l11.5 4.759v-19.759zM29 3.742l-11.5 4.758v19.754l11.5-4.754v-19.756zM19.879 10.632l5.5-2.5c0.182-0.085 0.396-0.135 0.621-0.135 0.828 0 1.5 0.672 1.5 1.5 0 0.603-0.356 1.123-0.87 1.362l-0.009 0.004-5.5 2.5c-0.17 0.073-0.368 0.115-0.576 0.115-0.828 0-1.5-0.672-1.5-1.5 0-0.586 0.336-1.093 0.825-1.34l0.009-0.004zM19.879 16.132v0l5.5-2.5c0.182-0.085 0.396-0.135 0.621-0.135 0.828 0 1.5 0.672 1.5 1.5 0 0.603-0.356 1.123-0.87 1.362l-0.009 0.004-5.5 2.5c-0.17 0.073-0.368 0.115-0.576 0.115-0.828 0-1.5-0.672-1.5-1.5 0-0.586 0.336-1.093 0.825-1.34l0.009-0.004zM19.879 21.632v0l5.5-2.5c0.182-0.085 0.396-0.135 0.621-0.135 0.828 0 1.5 0.672 1.5 1.5 0 0.603-0.356 1.123-0.87 1.362l-0.009 0.004-5.5 2.5c-0.17 0.073-0.368 0.115-0.576 0.115-0.828 0-1.5-0.672-1.5-1.5 0-0.586 0.336-1.093 0.825-1.34l0.009-0.004zM6 8c0 0 0.001 0 0.001 0 0.225 0 0.438 0.049 0.629 0.138l-0.009-0.004 5.5 2.5c0.524 0.242 0.88 0.762 0.88 1.366 0 0.828-0.672 1.5-1.5 1.5-0 0-0.001 0-0.001 0h0c-0.001 0-0.002 0-0.003 0-0.224 0-0.436-0.050-0.627-0.139l0.009 0.004-5.5-2.5c-0.522-0.242-0.878-0.762-0.878-1.365 0-0.828 0.671-1.499 1.499-1.5h0zM6 13.5c0 0 0.001 0 0.001 0 0.225 0 0.438 0.049 0.629 0.138l-0.009-0.004 5.5 2.5c0.523 0.242 0.879 0.762 0.879 1.366 0 0.828-0.672 1.5-1.5 1.5-0.225 0-0.439-0.050-0.63-0.138l0.009 0.004-5.5-2.5c-0.522-0.242-0.878-0.762-0.878-1.365 0-0.828 0.671-1.499 1.499-1.5h0zM6 19c0 0 0.001 0 0.001 0 0.225 0 0.438 0.049 0.629 0.138l-0.009-0.004 5.5 2.5c0.524 0.242 0.88 0.762 0.88 1.366 0 0.828-0.672 1.5-1.5 1.5-0 0-0.001 0-0.001 0h0c-0.001 0-0.002 0-0.003 0-0.224 0-0.436-0.050-0.627-0.139l0.009 0.004-5.5-2.5c-0.522-0.242-0.878-0.762-0.878-1.365 0-0.828 0.671-1.499 1.499-1.5h0z"></path>
</symbol>
<symbol id="COMPUTER" viewBox="0 0 32 32">
<path fill="#95e1d3" style="fill: var(--color1, #95e1d3)" d="M30.452 25.29h-9.806v2.581l2.065 2.065v0.516h-13.419v-0.516l2.065-2.065v-2.581h-9.806c-0.855 0-1.548-0.693-1.548-1.548v0-20.645c0-0.855 0.693-1.548 1.548-1.548v0h28.903c0.855 0 1.548 0.693 1.548 1.548v0 20.645c0 0.855-0.693 1.548-1.548 1.548v0zM29.935 3.613h-27.871v17.548h27.871v-17.548zM12.903 10.839c0.427 0 0.814 0.173 1.094 0.453l0.97 0.969 3.035-3.034c0.283-0.298 0.682-0.484 1.125-0.484 0.855 0 1.548 0.693 1.548 1.548 0 0.443-0.186 0.842-0.484 1.124l-0.001 0.001-4.129 4.129c-0.28 0.28-0.667 0.453-1.094 0.453s-0.814-0.173-1.094-0.453l-2.065-2.065c-0.28-0.28-0.453-0.667-0.453-1.094 0-0.855 0.692-1.548 1.547-1.548h0z"></path>
</symbol>
<symbol id="HOME" viewBox="0 0 32 32">
<path fill="#95e1d3" style="fill: var(--color1, #95e1d3)" d="M32 16.5c-0.003 0.826-0.674 1.494-1.5 1.494-0.394 0-0.753-0.152-1.021-0.401l0.001 0.001-13.48-13.472-13.446 13.446c-0.273 0.278-0.652 0.451-1.072 0.451-0.828 0-1.5-0.672-1.5-1.5 0-0.434 0.184-0.825 0.479-1.099l0.001-0.001 14.458-14.459c0.273-0.284 0.656-0.46 1.080-0.46h0.091l0.068 0.006c0.371 0.042 0.695 0.213 0.932 0.467l0.001 0.001 5.9 5.9v-1.374c0-0.828 0.672-1.5 1.5-1.5s1.5 0.672 1.5 1.5v0 4.378l5.6 5.6c0.252 0.266 0.407 0.626 0.408 1.022v0zM29 19v10.5c0 0.828-0.672 1.5-1.5 1.5v0h-3v-12h-6v12h-14c-0.828 0-1.5-0.672-1.5-1.5v0-10.5l13-13zM13.5 19h-6v6h6v-6z"></path>
</symbol>
<symbol id="IMAGE" viewBox="0 0 32 32">
<path fill="#95e1d3" style="fill: var(--color1, #95e1d3)" d="M30.5 32h-29c-0.828 0-1.5-0.672-1.5-1.5v0-29c0-0.828 0.672-1.5 1.5-1.5v0h29c0.828 0 1.5 0.672 1.5 1.5v0 29c0 0.828-0.672 1.5-1.5 1.5v0zM29 3h-26v26h26v-26zM6.5 4.5h5.5c0.828 0 1.5 0.672 1.5 1.5s-0.672 1.5-1.5 1.5v0h-4.5v4.5c0 0.828-0.672 1.5-1.5 1.5s-1.5-0.672-1.5-1.5v0 0-7.5h2zM4.5 20v0c0-0.828 0.672-1.5 1.5-1.5s1.5 0.672 1.5 1.5v0 0 4.5h4.5c0.828 0 1.5 0.672 1.5 1.5s-0.672 1.5-1.5 1.5v0h-7.5v-7.5zM20 4.5h7.5v7.5c0 0.828-0.672 1.5-1.5 1.5s-1.5-0.672-1.5-1.5v0 0-4.5h-4.5c-0.828 0-1.5-0.672-1.5-1.5s0.672-1.5 1.5-1.5v0zM20 24.5h4.5v-4.5c0-0.828 0.672-1.5 1.5-1.5s1.5 0.672 1.5 1.5v0 0 7.5h-7.5c-0.828 0-1.5-0.672-1.5-1.5s0.672-1.5 1.5-1.5v0z"></path>
</symbol>
<symbol id="LINE_GRAPH" viewBox="0 0 32 32">
<path fill="#95e1d3" style="fill: var(--color1, #95e1d3)" d="M30.5 32h-29c-0.828 0-1.5-0.672-1.5-1.5v0-29c0-0.828 0.672-1.5 1.5-1.5v0h29c0.828 0 1.5 0.672 1.5 1.5v0 29c0 0.828-0.672 1.5-1.5 1.5v0zM29 3h-26v26h26v-26zM5.215 16.238v0l4-2.5c0.223-0.139 0.495-0.222 0.785-0.222 0.313 0 0.604 0.096 0.845 0.26l-0.005-0.003 0.006-0.008 6.631 4.42 7.638-5.392c0.25-0.194 0.568-0.31 0.914-0.31 0.828 0 1.5 0.672 1.5 1.5 0 0.511-0.256 0.962-0.646 1.233l-0.005 0.003-8.5 6c-0.243 0.177-0.548 0.284-0.878 0.284-0.322 0-0.621-0.102-0.866-0.275l0.005 0.003-6.657-4.438-3.135 1.96c-0.24 0.17-0.538 0.271-0.861 0.271-0.828 0-1.5-0.672-1.5-1.5 0-0.544 0.289-1.020 0.722-1.283l0.007-0.004z"></path>
</symbol>
</defs>
</svg>
